# xmcd
#
# Track frame offsets: 
#        150
#        19269
#        33082
#        46712
#        66352
#        77660
#        91381
#        105177
#        116938
#        129195
#        141860
#        157822
#
# Disc length: 2280 seconds
#
# Revision: 0
# Processed by: cddbd v1.5.2PL0 Copyright (c) Steve Scherf et al.
# Submitted via: ExactAudioCopy v0.95b3
#
DISCID=8c08e60c
DTITLE=The Byrds  - Another Dimension (Sundazed vinyl)  FLAC
DYEAR=1900
DGENRE=
TTITLE0=Eight Miles High
TTITLE1=Why
TTITLE2=Ryder (I Know My Rider)
TTITLE3=John Riley I
TTITLE4=242 Fox Trot (The Lear Jet Song)
TTITLE5=Psychodrama City
TTITLE6=John Riley II
TTITLE7=Wild Mountain Thyme
TTITLE8=Hey Joe (Where You Gonna Go)
TTITLE9=I See You
TTITLE10=What's Happening?!?!
TTITLE11=Captain Soul (30 Minute Break)
EXTD=
EXTT0=
EXTT1=
EXTT2=
EXTT3=
EXTT4=
EXTT5=
EXTT6=
EXTT7=
EXTT8=
EXTT9=
EXTT10=
EXTT11=
PLAYORDER=
